<svg xmlns="http://www.w3.org/2000/svg" xmlns:xlink="http://www.w3.org/1999/xlink" contentStyleType="text/css" data-diagram-type="CLASS" height="590px" preserveAspectRatio="none" style="width:1774px;height:590px;background:#FFFFFF;" version="1.1" viewBox="0 0 1774 590" width="1774px" zoomAndPan="magnify"><defs/><g><!--cluster core--><g class="cluster" data-entity="core" data-source-line="1" data-uid="ent0002" id="cluster_core"><path d="M8.5,6 L43.8164,6 A3.75,3.75 0 0 1 46.3164,8.5 L53.3164,28.2969 L708.5,28.2969 A2.5,2.5 0 0 1 711,30.7969 L711,580.66 A2.5,2.5 0 0 1 708.5,583.16 L8.5,583.16 A2.5,2.5 0 0 1 6,580.66 L6,8.5 A2.5,2.5 0 0 1 8.5,6 " fill="none" style="stroke:#000000;stroke-width:1.5;"/><line style="stroke:#000000;stroke-width:1.5;" x1="6" x2="53.3164" y1="28.2969" y2="28.2969"/><text fill="#000000" font-family="sans-serif" font-size="14" font-weight="bold" lengthAdjust="spacing" textLength="34.3164" x="10" y="20.9951">core</text></g><!--cluster input--><g class="cluster" data-entity="input" data-source-line="29" data-uid="ent0007" id="cluster_input"><path d="M737.5,208.36 L779.9463,208.36 A3.75,3.75 0 0 1 782.4463,210.86 L789.4463,230.6569 L1434.5,230.6569 A2.5,2.5 0 0 1 1437,233.1569 L1437,329.42 A2.5,2.5 0 0 1 1434.5,331.92 L737.5,331.92 A2.5,2.5 0 0 1 735,329.42 L735,210.86 A2.5,2.5 0 0 1 737.5,208.36 " fill="none" style="stroke:#000000;stroke-width:1.5;"/><line style="stroke:#000000;stroke-width:1.5;" x1="735" x2="789.4463" y1="230.6569" y2="230.6569"/><text fill="#000000" font-family="sans-serif" font-size="14" font-weight="bold" lengthAdjust="spacing" textLength="41.4463" x="739" y="223.3551">input</text></g><!--cluster output--><g class="cluster" data-entity="output" data-source-line="39" data-uid="ent0010" id="cluster_output"><path d="M1463.5,208.36 L1517.458,208.36 A3.75,3.75 0 0 1 1519.958,210.86 L1526.958,230.6569 L1764.5,230.6569 A2.5,2.5 0 0 1 1767,233.1569 L1767,329.42 A2.5,2.5 0 0 1 1764.5,331.92 L1463.5,331.92 A2.5,2.5 0 0 1 1461,329.42 L1461,210.86 A2.5,2.5 0 0 1 1463.5,208.36 " fill="none" style="stroke:#000000;stroke-width:1.5;"/><line style="stroke:#000000;stroke-width:1.5;" x1="1461" x2="1526.958" y1="230.6569" y2="230.6569"/><text fill="#000000" font-family="sans-serif" font-size="14" font-weight="bold" lengthAdjust="spacing" textLength="52.958" x="1465" y="223.3551">output</text></g><!--class PicoPlacaRule--><g class="entity" data-entity="PicoPlacaRule" data-source-line="2" data-uid="ent0003" id="entity_PicoPlacaRule"><rect fill="#F1F1F1" height="145.7813" rx="2.5" ry="2.5" style="stroke:#181818;stroke-width:0.5;" width="460.1504" x="21.92" y="421.38"/><ellipse cx="199.3023" cy="437.38" fill="#ADD1B2" rx="11" ry="11" style="stroke:#181818;stroke-width:1;"/><path d="M202.2711,443.0206 Q201.6929,443.3175 201.0523,443.4581 Q200.4117,443.6144 199.7086,443.6144 Q197.2086,443.6144 195.8804,441.9738 Q194.5679,440.3175 194.5679,437.1925 Q194.5679,434.0675 195.8804,432.4113 Q197.2086,430.755 199.7086,430.755 Q200.4117,430.755 201.0523,430.9113 Q201.7086,431.0675 202.2711,431.3644 L202.2711,434.0831 Q201.6461,433.505 201.0523,433.2394 Q200.4586,432.9581 199.8336,432.9581 Q198.4898,432.9581 197.8023,434.0363 Q197.1148,435.0988 197.1148,437.1925 Q197.1148,439.2863 197.8023,440.3644 Q198.4898,441.4269 199.8336,441.4269 Q200.4586,441.4269 201.0523,441.1613 Q201.6461,440.88 202.2711,440.3019 L202.2711,443.0206 Z " fill="#000000"/><text fill="#000000" font-family="sans-serif" font-size="14" lengthAdjust="spacing" textLength="96.8857" x="219.8023" y="442.2267">PicoPlacaRule</text><line style="stroke:#181818;stroke-width:0.5;" x1="22.92" x2="481.0704" y1="453.38" y2="453.38"/><rect fill="none" height="6" style="stroke:#C82930;stroke-width:1;" width="6" x="29.92" y="464.0284"/><text fill="#000000" font-family="sans-serif" font-size="14" lengthAdjust="spacing" textLength="160.1387" x="41.92" y="470.3751">days_of_week: List[int]</text><rect fill="none" height="6" style="stroke:#C82930;stroke-width:1;" width="6" x="29.92" y="480.3253"/><text fill="#000000" font-family="sans-serif" font-size="14" lengthAdjust="spacing" textLength="175.6357" x="41.92" y="486.672">restricted_digits: List[int]</text><rect fill="none" height="6" style="stroke:#C82930;stroke-width:1;" width="6" x="29.92" y="496.6222"/><text fill="#000000" font-family="sans-serif" font-size="14" lengthAdjust="spacing" textLength="112.0342" x="41.92" y="502.9689">start_time: time</text><rect fill="none" height="6" style="stroke:#C82930;stroke-width:1;" width="6" x="29.92" y="512.9191"/><text fill="#000000" font-family="sans-serif" font-size="14" lengthAdjust="spacing" textLength="105.7998" x="41.92" y="519.2657">end_time: time</text><line style="stroke:#181818;stroke-width:0.5;" x1="22.92" x2="481.0704" y1="526.5675" y2="526.5675"/><ellipse cx="32.92" cy="540.2159" fill="#84BE84" rx="3" ry="3" style="stroke:#038048;stroke-width:1;"/><text fill="#000000" font-family="sans-serif" font-size="14" lengthAdjust="spacing" textLength="434.1504" x="41.92" y="543.5626">__init__(days_of_week, restricted_digits, start_time, end_time)</text><ellipse cx="32.92" cy="556.5128" fill="#84BE84" rx="3" ry="3" style="stroke:#038048;stroke-width:1;"/><text fill="#000000" font-family="sans-serif" font-size="14" lengthAdjust="spacing" textLength="364.2256" x="41.92" y="559.8595">is_restricted(day_of_week, current_time, digit): bool</text></g><!--class PicoPlacaRuleSet--><g class="entity" data-entity="PicoPlacaRuleSet" data-source-line="11" data-uid="ent0004" id="entity_PicoPlacaRuleSet"><rect fill="#F1F1F1" height="129.4844" rx="2.5" ry="2.5" style="stroke:#181818;stroke-width:0.5;" width="498.0146" x="196.99" y="214.89"/><ellipse cx="381.8098" cy="230.89" fill="#ADD1B2" rx="11" ry="11" style="stroke:#181818;stroke-width:1;"/><path d="M384.7786,236.5306 Q384.2004,236.8275 383.5598,236.9681 Q382.9192,237.1244 382.2161,237.1244 Q379.7161,237.1244 378.3879,235.4838 Q377.0754,233.8275 377.0754,230.7025 Q377.0754,227.5775 378.3879,225.9213 Q379.7161,224.265 382.2161,224.265 Q382.9192,224.265 383.5598,224.4213 Q384.2161,224.5775 384.7786,224.8744 L384.7786,227.5931 Q384.1536,227.015 383.5598,226.7494 Q382.9661,226.4681 382.3411,226.4681 Q380.9973,226.4681 380.3098,227.5463 Q379.6223,228.6088 379.6223,230.7025 Q379.6223,232.7963 380.3098,233.8744 Q380.9973,234.9369 382.3411,234.9369 Q382.9661,234.9369 383.5598,234.6713 Q384.1536,234.39 384.7786,233.8119 L384.7786,236.5306 Z " fill="#000000"/><text fill="#000000" font-family="sans-serif" font-size="14" lengthAdjust="spacing" textLength="119.875" x="402.3098" y="235.7367">PicoPlacaRuleSet</text><line style="stroke:#181818;stroke-width:0.5;" x1="197.99" x2="694.0046" y1="246.89" y2="246.89"/><rect fill="none" height="6" style="stroke:#C82930;stroke-width:1;" width="6" x="204.99" y="257.5384"/><text fill="#000000" font-family="sans-serif" font-size="14" lengthAdjust="spacing" textLength="298.7305" x="216.99" y="263.8851">rules_by_day: Dict[int, List[PicoPlacaRule]]</text><line style="stroke:#181818;stroke-width:0.5;" x1="197.99" x2="694.0046" y1="271.1869" y2="271.1869"/><ellipse cx="207.99" cy="284.8353" fill="#84BE84" rx="3" ry="3" style="stroke:#038048;stroke-width:1;"/><text fill="#000000" font-family="sans-serif" font-size="14" lengthAdjust="spacing" textLength="61.0654" x="216.99" y="288.182">__init__()</text><ellipse cx="207.99" cy="301.1322" fill="#84BE84" rx="3" ry="3" style="stroke:#038048;stroke-width:1;"/><text fill="#000000" font-family="sans-serif" font-size="14" lengthAdjust="spacing" textLength="243.3867" x="216.99" y="304.4789">add_rule(rule: PicoPlacaRule): void</text><ellipse cx="207.99" cy="317.4291" fill="#84BE84" rx="3" ry="3" style="stroke:#038048;stroke-width:1;"/><text fill="#000000" font-family="sans-serif" font-size="14" lengthAdjust="spacing" textLength="116.1699" x="216.99" y="320.7757">has_rules(): bool</text><ellipse cx="207.99" cy="333.7259" fill="#84BE84" rx="3" ry="3" style="stroke:#038048;stroke-width:1;"/><text fill="#000000" font-family="sans-serif" font-size="14" lengthAdjust="spacing" textLength="472.0146" x="216.99" y="337.0726">is_vehicle_restricted(datetime_input, digit, raise_on_no_rules): bool</text></g><!--class PicoPlacaPredictor--><g class="entity" data-entity="PicoPlacaPredictor" data-source-line="19" data-uid="ent0005" id="entity_PicoPlacaPredictor"><rect fill="#F1F1F1" height="96.8906" rx="2.5" ry="2.5" style="stroke:#181818;stroke-width:0.5;" width="364.4883" x="330.76" y="41"/><ellipse cx="444.3152" cy="57" fill="#ADD1B2" rx="11" ry="11" style="stroke:#181818;stroke-width:1;"/><path d="M447.2839,62.6406 Q446.7058,62.9375 446.0652,63.0781 Q445.4246,63.2344 444.7214,63.2344 Q442.2214,63.2344 440.8933,61.5938 Q439.5808,59.9375 439.5808,56.8125 Q439.5808,53.6875 440.8933,52.0313 Q442.2214,50.375 444.7214,50.375 Q445.4246,50.375 446.0652,50.5313 Q446.7214,50.6875 447.2839,50.9844 L447.2839,53.7031 Q446.6589,53.125 446.0652,52.8594 Q445.4714,52.5781 444.8464,52.5781 Q443.5027,52.5781 442.8152,53.6563 Q442.1277,54.7188 442.1277,56.8125 Q442.1277,58.9063 442.8152,59.9844 Q443.5027,61.0469 444.8464,61.0469 Q445.4714,61.0469 446.0652,60.7813 Q446.6589,60.5 447.2839,59.9219 L447.2839,62.6406 Z " fill="#000000"/><text fill="#000000" font-family="sans-serif" font-size="14" lengthAdjust="spacing" textLength="128.8779" x="464.8152" y="61.8467">PicoPlacaPredictor</text><line style="stroke:#181818;stroke-width:0.5;" x1="331.76" x2="694.2483" y1="73" y2="73"/><rect fill="none" height="6" style="stroke:#C82930;stroke-width:1;" width="6" x="338.76" y="83.6484"/><text fill="#000000" font-family="sans-serif" font-size="14" lengthAdjust="spacing" textLength="184.5703" x="350.76" y="89.9951">rule_set: PicoPlacaRuleSet</text><line style="stroke:#181818;stroke-width:0.5;" x1="331.76" x2="694.2483" y1="97.2969" y2="97.2969"/><ellipse cx="341.76" cy="110.9453" fill="#84BE84" rx="3" ry="3" style="stroke:#038048;stroke-width:1;"/><text fill="#000000" font-family="sans-serif" font-size="14" lengthAdjust="spacing" textLength="245.6357" x="350.76" y="114.292">__init__(rule_set: PicoPlacaRuleSet)</text><ellipse cx="341.76" cy="127.2422" fill="#84BE84" rx="3" ry="3" style="stroke:#038048;stroke-width:1;"/><text fill="#000000" font-family="sans-serif" font-size="14" lengthAdjust="spacing" textLength="338.4883" x="350.76" y="130.5889">predict_restriction(license_plate, date, time): str</text></g><!--class NoRulesDefinedError--><g class="entity" data-entity="NoRulesDefinedError" data-source-line="25" data-uid="ent0006" id="entity_NoRulesDefinedError"><rect fill="#F1F1F1" height="48" rx="2.5" ry="2.5" style="stroke:#181818;stroke-width:0.5;" width="178.6992" x="516.65" y="470.27"/><ellipse cx="531.65" cy="486.27" fill="#ADD1B2" rx="11" ry="11" style="stroke:#181818;stroke-width:1;"/><path d="M534.6188,491.9106 Q534.0406,492.2075 533.4,492.3481 Q532.7594,492.5044 532.0563,492.5044 Q529.5563,492.5044 528.2281,490.8638 Q526.9156,489.2075 526.9156,486.0825 Q526.9156,482.9575 528.2281,481.3013 Q529.5563,479.645 532.0563,479.645 Q532.7594,479.645 533.4,479.8013 Q534.0563,479.9575 534.6188,480.2544 L534.6188,482.9731 Q533.9938,482.395 533.4,482.1294 Q532.8063,481.8481 532.1813,481.8481 Q530.8375,481.8481 530.15,482.9263 Q529.4625,483.9888 529.4625,486.0825 Q529.4625,488.1763 530.15,489.2544 Q530.8375,490.3169 532.1813,490.3169 Q532.8063,490.3169 533.4,490.0513 Q533.9938,489.77 534.6188,489.1919 L534.6188,491.9106 Z " fill="#000000"/><text fill="#000000" font-family="sans-serif" font-size="14" lengthAdjust="spacing" textLength="146.6992" x="545.65" y="491.1167">NoRulesDefinedError</text><line style="stroke:#181818;stroke-width:0.5;" x1="517.65" x2="694.3492" y1="502.27" y2="502.27"/><line style="stroke:#181818;stroke-width:0.5;" x1="517.65" x2="694.3492" y1="510.27" y2="510.27"/></g><!--class DateTimeParser--><g class="entity" data-entity="DateTimeParser" data-source-line="30" data-uid="ent0008" id="entity_DateTimeParser"><rect fill="#F1F1F1" height="72.5625" rx="2.5" ry="2.5" style="stroke:#181818;stroke-width:0.5;" width="341.793" x="751.1" y="243.36"/><ellipse cx="861.4491" cy="263.4928" fill="#ADD1B2" rx="11" ry="11" style="stroke:#181818;stroke-width:1;"/><path d="M864.4179,269.1334 Q863.8397,269.4303 863.1991,269.5709 Q862.5585,269.7272 861.8554,269.7272 Q859.3554,269.7272 858.0272,268.0866 Q856.7147,266.4303 856.7147,263.3053 Q856.7147,260.1803 858.0272,258.5241 Q859.3554,256.8678 861.8554,256.8678 Q862.5585,256.8678 863.1991,257.0241 Q863.8554,257.1803 864.4179,257.4772 L864.4179,260.1959 Q863.7929,259.6178 863.1991,259.3522 Q862.6054,259.0709 861.9804,259.0709 Q860.6366,259.0709 859.9491,260.1491 Q859.2616,261.2116 859.2616,263.3053 Q859.2616,265.3991 859.9491,266.4772 Q860.6366,267.5397 861.9804,267.5397 Q862.6054,267.5397 863.1991,267.2741 Q863.7929,266.9928 864.4179,266.4147 L864.4179,269.1334 Z " fill="#000000"/><text fill="#000000" font-family="sans-serif" font-size="12" font-style="italic" lengthAdjust="spacing" textLength="47.6309" x="914.4311" y="259.4987">&#171;static&#187;</text><text fill="#000000" font-family="sans-serif" font-size="14" lengthAdjust="spacing" textLength="112.5947" x="881.9491" y="275.3239">DateTimeParser</text><line style="stroke:#181818;stroke-width:0.5;" x1="752.1" x2="1091.893" y1="283.6256" y2="283.6256"/><line style="stroke:#181818;stroke-width:0.5;" x1="752.1" x2="1091.893" y1="291.6256" y2="291.6256"/><ellipse cx="762.1" cy="305.2741" fill="#84BE84" rx="3" ry="3" style="stroke:#038048;stroke-width:1;"/><text fill="#000000" font-family="sans-serif" font-size="14" lengthAdjust="spacing" text-decoration="underline" textLength="315.793" x="771.1" y="308.6207">parse_datetime(date_str, time_str): datetime</text></g><!--class LicensePlateParser--><g class="entity" data-entity="LicensePlateParser" data-source-line="34" data-uid="ent0009" id="entity_LicensePlateParser"><rect fill="#F1F1F1" height="72.5625" rx="2.5" ry="2.5" style="stroke:#181818;stroke-width:0.5;" width="293.1279" x="1127.44" y="243.36"/><ellipse cx="1203.6368" cy="263.4928" fill="#ADD1B2" rx="11" ry="11" style="stroke:#181818;stroke-width:1;"/><path d="M1206.6055,269.1334 Q1206.0274,269.4303 1205.3868,269.5709 Q1204.7462,269.7272 1204.043,269.7272 Q1201.543,269.7272 1200.2149,268.0866 Q1198.9024,266.4303 1198.9024,263.3053 Q1198.9024,260.1803 1200.2149,258.5241 Q1201.543,256.8678 1204.043,256.8678 Q1204.7462,256.8678 1205.3868,257.0241 Q1206.043,257.1803 1206.6055,257.4772 L1206.6055,260.1959 Q1205.9805,259.6178 1205.3868,259.3522 Q1204.793,259.0709 1204.168,259.0709 Q1202.8243,259.0709 1202.1368,260.1491 Q1201.4493,261.2116 1201.4493,263.3053 Q1201.4493,265.3991 1202.1368,266.4772 Q1202.8243,267.5397 1204.168,267.5397 Q1204.793,267.5397 1205.3868,267.2741 Q1205.9805,266.9928 1206.6055,266.4147 L1206.6055,269.1334 Z " fill="#000000"/><text fill="#000000" font-family="sans-serif" font-size="12" font-style="italic" lengthAdjust="spacing" textLength="47.6309" x="1266.4385" y="259.4987">&#171;static&#187;</text><text fill="#000000" font-family="sans-serif" font-size="14" lengthAdjust="spacing" textLength="132.2344" x="1224.1368" y="275.3239">LicensePlateParser</text><line style="stroke:#181818;stroke-width:0.5;" x1="1128.44" x2="1419.5679" y1="283.6256" y2="283.6256"/><line style="stroke:#181818;stroke-width:0.5;" x1="1128.44" x2="1419.5679" y1="291.6256" y2="291.6256"/><ellipse cx="1138.44" cy="305.2741" fill="#84BE84" rx="3" ry="3" style="stroke:#038048;stroke-width:1;"/><text fill="#000000" font-family="sans-serif" font-size="14" lengthAdjust="spacing" text-decoration="underline" textLength="267.1279" x="1147.44" y="308.6207">parse_license_plate(license_plate): int</text></g><!--class OutputFormatter--><g class="entity" data-entity="OutputFormatter" data-source-line="40" data-uid="ent0011" id="entity_OutputFormatter"><rect fill="#F1F1F1" height="72.5625" rx="2.5" ry="2.5" style="stroke:#181818;stroke-width:0.5;" width="274.8008" x="1476.6" y="243.36"/><ellipse cx="1550.4657" cy="263.4928" fill="#ADD1B2" rx="11" ry="11" style="stroke:#181818;stroke-width:1;"/><path d="M1553.4345,269.1334 Q1552.8563,269.4303 1552.2157,269.5709 Q1551.5751,269.7272 1550.872,269.7272 Q1548.372,269.7272 1547.0438,268.0866 Q1545.7313,266.4303 1545.7313,263.3053 Q1545.7313,260.1803 1547.0438,258.5241 Q1548.372,256.8678 1550.872,256.8678 Q1551.5751,256.8678 1552.2157,257.0241 Q1552.872,257.1803 1553.4345,257.4772 L1553.4345,260.1959 Q1552.8095,259.6178 1552.2157,259.3522 Q1551.622,259.0709 1550.997,259.0709 Q1549.6532,259.0709 1548.9657,260.1491 Q1548.2782,261.2116 1548.2782,263.3053 Q1548.2782,265.3991 1548.9657,266.4772 Q1549.6532,267.5397 1550.997,267.5397 Q1551.622,267.5397 1552.2157,267.2741 Q1552.8095,266.9928 1553.4345,266.4147 L1553.4345,269.1334 Z " fill="#000000"/><text fill="#000000" font-family="sans-serif" font-size="12" font-style="italic" lengthAdjust="spacing" textLength="47.6309" x="1606.435" y="259.4987">&#171;static&#187;</text><text fill="#000000" font-family="sans-serif" font-size="14" lengthAdjust="spacing" textLength="118.5693" x="1570.9657" y="275.3239">OutputFormatter</text><line style="stroke:#181818;stroke-width:0.5;" x1="1477.6" x2="1750.4008" y1="283.6256" y2="283.6256"/><line style="stroke:#181818;stroke-width:0.5;" x1="1477.6" x2="1750.4008" y1="291.6256" y2="291.6256"/><ellipse cx="1487.6" cy="305.2741" fill="#84BE84" rx="3" ry="3" style="stroke:#038048;stroke-width:1;"/><text fill="#000000" font-family="sans-serif" font-size="14" lengthAdjust="spacing" text-decoration="underline" textLength="248.8008" x="1496.6" y="308.6207">format_prediction(is_restricted): str</text></g><!--reverse link PicoPlacaRuleSet to PicoPlacaRule--><g class="link" data-entity-1="PicoPlacaRuleSet" data-entity-2="PicoPlacaRule" data-source-line="46" data-uid="lnk12" id="link_PicoPlacaRuleSet_PicoPlacaRule"><path codeLine="46" d="M379.4418,353.5846 C357.4618,377.6746 340.42,396.35 317.82,421.13 " fill="none" id="PicoPlacaRuleSet-backto-PicoPlacaRule" style="stroke:#181818;stroke-width:1;"/><polygon fill="none" points="387.53,344.72,380.531,346.4562,379.4418,353.5846,386.4408,351.8484,387.53,344.72" style="stroke:#181818;stroke-width:1;"/><text fill="#000000" font-family="sans-serif" font-size="13" lengthAdjust="spacing" textLength="55.0278" x="355" y="387.4469">contains</text><text fill="#000000" font-family="sans-serif" font-size="13" lengthAdjust="spacing" textLength="8.271" x="373.102" y="364.2794">1</text><text fill="#000000" font-family="sans-serif" font-size="13" lengthAdjust="spacing" textLength="6.5" x="318.0289" y="410.2654">*</text></g><!--link PicoPlacaRuleSet to NoRulesDefinedError--><g class="link" data-entity-1="PicoPlacaRuleSet" data-entity-2="NoRulesDefinedError" data-source-line="47" data-uid="lnk13" id="link_PicoPlacaRuleSet_NoRulesDefinedError"><path codeLine="47" d="M494.22,344.72 C526.06,387.03 562.3015,435.2064 584.8015,465.0964 " fill="none" id="PicoPlacaRuleSet-to-NoRulesDefinedError" style="stroke:#181818;stroke-width:1;stroke-dasharray:7.0,7.0;"/><polygon fill="#181818" points="588.41,469.89,586.1931,460.2939,585.4029,465.8953,579.8015,465.1052,588.41,469.89" style="stroke:#181818;stroke-width:1;"/><text fill="#000000" font-family="sans-serif" font-size="13" lengthAdjust="spacing" textLength="44.04" x="527" y="387.4469">throws</text></g><!--reverse link PicoPlacaPredictor to PicoPlacaRuleSet--><g class="link" data-entity-1="PicoPlacaPredictor" data-entity-2="PicoPlacaRuleSet" data-source-line="48" data-uid="lnk14" id="link_PicoPlacaPredictor_PicoPlacaRuleSet"><path codeLine="48" d="M492.0679,149.2459 C483.8179,172.4359 477.78,189.38 468.85,214.46 " fill="none" id="PicoPlacaPredictor-backto-PicoPlacaRuleSet" style="stroke:#181818;stroke-width:1;"/><polygon fill="#181818" points="496.09,137.94,490.3103,142.2522,492.0679,149.2459,497.8476,144.9336,496.09,137.94" style="stroke:#181818;stroke-width:1;"/><text fill="#000000" font-family="sans-serif" font-size="13" lengthAdjust="spacing" textLength="29.7832" x="484" y="180.9569">uses</text><text fill="#000000" font-family="sans-serif" font-size="13" lengthAdjust="spacing" textLength="8.271" x="485.168" y="157.8905">1</text><text fill="#000000" font-family="sans-serif" font-size="13" lengthAdjust="spacing" textLength="8.271" x="462.8082" y="204.0394">1</text></g><!--link PicoPlacaPredictor to LicensePlateParser--><g class="link" data-entity-1="PicoPlacaPredictor" data-entity-2="LicensePlateParser" data-source-line="49" data-uid="lnk15" id="link_PicoPlacaPredictor_LicensePlateParser"><path codeLine="49" d="M695.67,111.38 C815.46,128.19 974.42,156.37 1110,200.36 C1143.91,211.36 1174.4931,225.1777 1204.0531,240.2277 " fill="none" id="PicoPlacaPredictor-to-LicensePlateParser" style="stroke:#181818;stroke-width:1;stroke-dasharray:7.0,7.0;"/><polygon fill="#181818" points="1209.4,242.95,1203.1945,235.302,1204.9443,240.6814,1199.5648,242.4312,1209.4,242.95" style="stroke:#181818;stroke-width:1;"/><text fill="#000000" font-family="sans-serif" font-size="13" lengthAdjust="spacing" textLength="29.7832" x="1048" y="180.9569">uses</text></g><!--link PicoPlacaPredictor to DateTimeParser--><g class="link" data-entity-1="PicoPlacaPredictor" data-entity-2="DateTimeParser" data-source-line="50" data-uid="lnk16" id="link_PicoPlacaPredictor_DateTimeParser"><path codeLine="50" d="M617,138.3 C687.76,170.86 774.4394,210.7418 838.8494,240.3818 " fill="none" id="PicoPlacaPredictor-to-DateTimeParser" style="stroke:#181818;stroke-width:1;stroke-dasharray:7.0,7.0;"/><polygon fill="#181818" points="844.3,242.89,837.7963,235.4939,839.7579,240.7998,834.452,242.7614,844.3,242.89" style="stroke:#181818;stroke-width:1;"/><text fill="#000000" font-family="sans-serif" font-size="13" lengthAdjust="spacing" textLength="29.7832" x="718" y="180.9569">uses</text></g><!--link PicoPlacaPredictor to OutputFormatter--><g class="link" data-entity-1="PicoPlacaPredictor" data-entity-2="OutputFormatter" data-source-line="51" data-uid="lnk17" id="link_PicoPlacaPredictor_OutputFormatter"><path codeLine="51" d="M695.34,96.16 C883.96,105.76 1185.57,131.47 1437,200.36 C1474.43,210.61 1508.7009,224.9535 1540.9909,240.4535 " fill="none" id="PicoPlacaPredictor-to-OutputFormatter" style="stroke:#181818;stroke-width:1;stroke-dasharray:7.0,7.0;"/><polygon fill="#181818" points="1546.4,243.05,1540.0174,235.5492,1541.8924,240.8863,1536.5554,242.7613,1546.4,243.05" style="stroke:#181818;stroke-width:1;"/><text fill="#000000" font-family="sans-serif" font-size="13" lengthAdjust="spacing" textLength="29.7832" x="1364" y="180.9569">uses</text></g><!--SRC=[ZLHBJ-Cm4BxdLunosG8j4jS8zLJsX7OZuBQgBEDCwOXWHxO3GgZ_VSU9q-R5ur2hcSnyZvbnAgcUvHD2gep553uI05LAvo0dPV9IAdbNbzZ40LPGo7Sdp4wy8JvdS4lE_oFjj_6jHUSjAO-5AEY9l9kcE2-j5vvUC8DmnZ3gOXoy0258anTYqMTTJbcMFTJb4Ueief0Jfue0TK9IjRMeky86x2o3HsDAhZtmRxuRz-YF3R7yxCJZks3W33PC4jmkMz-3gkrsRAjJA8j219n5EB8X5-jvDLJ4pBrqJQPRd7H6Zw-u9rNYqAl7O8tvgjf7Wzm_IGw5qKAR5kmxpxd5WX6D7RWM3dqsQSpOu-UPdVkgHJyA9wCN9IdKBB8gsG8BRyvcg1dFsewL_Z41qsrmHngB6skZr4DoI9Ags_2c2_qLtp3i0uFcqZgqS7tDQ-H9hTVHvmLyj943L255T0rjEYjOI2ig_6DXtTknkjlMJ1wy_9Xgq85XFvYALsnYpzH-vEzl4_bjx8lq_XlMNPCbuZ3230RtfjTtvlm5TyXAECljgNB9v7QaLocOrGhIytJq8Sb06UqbwPcgoylrx2Zvex2tvgrNSTh8m7GUcAxIwINDe7OuMnQePkRoTS5eNxvE7ZU_pVuF]--></g></svg>